<?xml version="1.0" encoding="UTF-8"?><svg id="Layer_1" xmlns="http://www.w3.org/2000/svg" viewBox="0 0 607.71 145.05"><defs><style>.cls-1{fill:#11868c;}.cls-1,.cls-2,.cls-3,.cls-4{stroke-width:0px;}.cls-2{fill:#f9beb5;}.cls-3{fill:#125f63;}.cls-4{fill:#f39075;}</style></defs><path class="cls-3" d="m142,50.99h28.73c4.34,0,8.09.45,11.27,1.35,3.18.9,5.82,2.21,7.91,3.92,2.1,1.71,3.66,3.79,4.68,6.25,1.02,2.46,1.54,5.24,1.54,8.35,0,2.1-.25,4.09-.76,5.98-.51,1.89-1.28,3.63-2.33,5.22-1.05,1.59-2.37,3-3.96,4.25-1.59,1.24-3.46,2.27-5.6,3.09l12.29,18.07h-14.02l-10.62-16.04h-.33l-17.34-.04v16.08h-11.45v-56.48Zm29.01,30.5c2.17,0,4.07-.25,5.69-.76,1.63-.51,2.99-1.22,4.08-2.13,1.1-.92,1.91-2.03,2.46-3.34.54-1.31.81-2.78.81-4.39,0-3.16-1.08-5.59-3.25-7.32-2.17-1.72-5.43-2.58-9.79-2.58h-17.56v20.52h17.56Z"/><path class="cls-3" d="m217.08,50.99h48.09v10.04h-36.64v11.27h32.45v9.43h-32.45v15.72h37.4v10.01h-48.85v-56.48Z"/><path class="cls-3" d="m278.75,50.99h12.5l15.32,36.46,3.54,8.82,2.78-8.82,5.64-13.3-10.15-23.16h11.78l4.16,11.02,3.87-11.02h11.78l-10.15,23.16,5.75,13.59,3.47,8.53,2.67-8.67,15.39-36.6h12.5l-24.93,56.48h-11.35l-5.02-11.2-4.08-10.88-4.08,10.88-5.09,11.2h-11.35l-24.93-56.48Z"/><path class="cls-3" d="m385.73,50.99h28.73c4.34,0,8.09.45,11.27,1.35,3.18.9,5.82,2.21,7.91,3.92,2.1,1.71,3.66,3.79,4.68,6.25,1.02,2.46,1.54,5.24,1.54,8.35,0,2.1-.25,4.09-.76,5.98-.51,1.89-1.28,3.63-2.33,5.22-1.05,1.59-2.37,3-3.96,4.25-1.59,1.24-3.46,2.27-5.6,3.09l12.29,18.07h-14.02l-10.62-16.04h-.33l-17.34-.04v16.08h-11.45v-56.48Zm29.01,30.5c2.17,0,4.07-.25,5.69-.76,1.63-.51,2.99-1.22,4.08-2.13,1.1-.92,1.91-2.03,2.46-3.34.54-1.31.81-2.78.81-4.39,0-3.16-1.08-5.59-3.25-7.32-2.17-1.72-5.43-2.58-9.79-2.58h-17.56v20.52h17.56Z"/><path class="cls-3" d="m459.36,50.99h11.53v56.48h-11.53v-56.48Z"/><path class="cls-3" d="m509.91,61.03h-20.85v-10.04h53.15v10.04h-20.85v46.43h-11.45v-46.43Z"/><path class="cls-3" d="m558.86,50.99h48.09v10.04h-36.64v11.27h32.45v9.43h-32.45v15.72h37.4v10.01h-48.85v-56.48Z"/><path class="cls-2" d="m46.9,0H0v50.77h0v16.92c9.18,0,17.99,1.6,26.16,4.54.19.07.37.14.56.21,5.93,2.18,11.52,5.07,16.66,8.56,3.18.79,6.51,1.22,9.94,1.22,5.11,0,10-.94,14.51-2.64,15.54-5.87,26.6-20.87,26.6-38.47C94.43,18.41,76.03,0,53.32,0h-6.42Z"/><path class="cls-1" d="m0,33.65v16.92c26.67,0,50.74,11.08,67.89,28.87,5.46-2.09,10.37-5.3,14.42-9.36C61.98,47.7,32.63,33.65,0,33.65Z"/><path class="cls-3" d="m43.58,145.05h16.92c0-33.37-27.05-60.43-60.43-60.43v16.92c24.03,0,43.5,19.48,43.5,43.5Z"/><path class="cls-2" d="m53.26,0H.08c35.77,0,68.51,12.96,93.81,34.43C90.66,14.9,73.71,0,53.26,0Z"/><path class="cls-4" d="m82.4,70.29c4.11-4.12,7.35-9.1,9.43-14.65C68.56,31.76,36.05,16.92.08,16.92v16.92c32.63,0,61.98,14.05,82.32,36.44Z"/><path class="cls-3" d="m67.97,79.65C50.82,61.85,26.75,50.77.08,50.77v16.92c9.18,0,17.99,1.6,26.16,4.54,6.29,2.26,12.2,5.31,17.62,9.04,20.28,13.95,33.57,37.3,33.57,63.77h16.92c0-25.4-10.05-48.45-26.38-65.4Z"/><path class="cls-3" d="m.08,118.43v26.61h26.61c0-14.7-11.92-26.61-26.61-26.61Z"/></svg>
